<svg xmlns="http://www.w3.org/2000/svg" width="151" height="120" viewBox="0 0 151 120" fill="none" class="svg replaced-svg">
<g clip-path="url(#clip0_143_49)">
<path d="M147.7 103.7H0.400024V105.4H147.7V103.7Z" fill="#C5D100"></path>
<path d="M3.60004 111H6.40004C6.90004 111 7.30004 111.1 7.70004 111.2C8.10004 111.3 8.40004 111.5 8.70004 111.7C9.00004 111.9 9.20004 112.2 9.40004 112.5C9.60004 112.8 9.70004 113.2 9.70004 113.6C9.70004 114 9.60004 114.3 9.50004 114.6C9.30004 114.9 9.10004 115.1 8.80004 115.3C8.50004 115.5 8.20004 115.6 7.90004 115.7C7.60004 115.8 7.20004 115.8 6.90004 115.8C6.80004 115.8 6.60004 115.8 6.40004 115.8C6.20004 115.8 6.10004 115.8 5.90004 115.8C5.70004 115.8 5.60004 115.8 5.50004 115.8C5.40004 115.8 5.30004 115.8 5.20004 115.7V119.7H3.60004V111ZM5.10004 115.2C5.30004 115.2 5.40004 115.3 5.60004 115.3C5.80004 115.3 6.00004 115.4 6.20004 115.4C6.50004 115.4 6.80004 115.4 7.00004 115.3C7.20004 115.2 7.40004 115.1 7.60004 114.9C7.80004 114.7 7.90004 114.5 7.90004 114.3C8.00004 114.1 8.00004 113.8 8.00004 113.6C8.00004 113.3 7.90004 113 7.80004 112.8C7.70004 112.6 7.60004 112.4 7.40004 112.2C7.20004 112 7.00004 111.9 6.80004 111.8C6.60004 111.7 6.30004 111.7 6.00004 111.7H5.00004V115.2H5.10004Z" fill="#C5D100"></path>
<path d="M11.6 111H14.6C15.1 111 15.6 111.1 16 111.2C16.4 111.3 16.7 111.5 17 111.7C17.3 111.9 17.5 112.1 17.6 112.4C17.7 112.7 17.8 113 17.8 113.3C17.8 113.6 17.7 113.8 17.6 114.1C17.5 114.3 17.4 114.5 17.2 114.7C17 114.9 16.8 115.1 16.5 115.2C16.2 115.3 15.9 115.4 15.6 115.5L18.8 119.7H17.1L14.1 115.6H13.1V119.7H11.6V111V111ZM13.1 115.2H13.9C14.2 115.2 14.5 115.2 14.8 115.1C15.1 115 15.3 114.9 15.5 114.7C15.7 114.5 15.9 114.3 16 114.1C16.1 113.9 16.2 113.6 16.2 113.3C16.2 113 16.2 112.8 16.1 112.6C16 112.4 15.9 112.2 15.7 112C15.5 111.8 15.3 111.7 15.1 111.6C14.9 111.5 14.6 111.5 14.4 111.5H13.1V115.2V115.2Z" fill="#C5D100"></path>
<path d="M24.6 119.9C24.2 119.9 23.7 119.8 23.3 119.7C22.9 119.6 22.5 119.4 22.1 119.2C21.7 119 21.4 118.8 21.1 118.5C20.8 118.2 20.6 117.9 20.4 117.6C20.2 117.3 20 116.9 19.9 116.5C19.8 116.1 19.7 115.7 19.7 115.3C19.7 114.9 19.8 114.5 19.9 114.1C20 113.7 20.2 113.4 20.4 113C20.6 112.7 20.9 112.4 21.1 112.1C21.4 111.8 21.7 111.6 22.1 111.4C22.5 111.2 22.8 111.1 23.3 110.9C23.7 110.8 24.1 110.7 24.6 110.7C25 110.7 25.5 110.8 25.9 110.9C26.3 111 26.7 111.2 27.1 111.4C27.5 111.6 27.8 111.8 28.1 112.1C28.4 112.4 28.6 112.7 28.8 113C29 113.3 29.2 113.7 29.3 114.1C29.4 114.5 29.5 114.9 29.5 115.3C29.5 115.7 29.4 116.1 29.3 116.5C29.2 116.9 29 117.3 28.8 117.6C28.6 117.9 28.3 118.3 28.1 118.5C27.8 118.8 27.5 119 27.1 119.2C26.7 119.4 26.4 119.6 25.9 119.7C25.5 119.8 25.1 119.9 24.6 119.9ZM24.6 119.5C25.1 119.5 25.5 119.4 25.9 119.2C26.3 119 26.6 118.7 26.9 118.3C27.2 117.9 27.4 117.5 27.5 117C27.6 116.5 27.7 115.9 27.7 115.3C27.7 114.7 27.6 114.2 27.5 113.7C27.4 113.2 27.2 112.8 26.9 112.4C26.6 112 26.3 111.8 25.9 111.6C25.5 111.4 25.1 111.3 24.6 111.3C24.1 111.3 23.6 111.4 23.3 111.6C22.9 111.8 22.6 112.1 22.3 112.4C22 112.7 21.8 113.2 21.7 113.7C21.6 114.2 21.5 114.7 21.5 115.3C21.5 115.9 21.6 116.5 21.7 117C21.8 117.5 22 118 22.3 118.3C22.6 118.7 22.9 119 23.3 119.2C23.7 119.4 24.1 119.5 24.6 119.5Z" fill="#C5D100"></path>
<path d="M31.9 111H34.8C35.7 111 36.5 111.1 37.1 111.2C37.7 111.4 38.3001 111.6 38.7001 112C39.2001 112.4 39.6 112.9 39.8 113.4C40 113.9 40.2001 114.5 40.2001 115.2C40.2001 115.8 40.1001 116.4 39.9001 116.9C39.7001 117.4 39.4001 117.9 38.9001 118.3C38.5001 118.7 37.9 119 37.3 119.3C36.7 119.5 36 119.6 35.1 119.6H31.8V111H31.9ZM33.4001 119.1H35C35.5 119.1 36.0001 119 36.4001 118.9C36.8001 118.7 37.2 118.5 37.5 118.2C37.8 117.9 38.1 117.5 38.3 117C38.5 116.5 38.6 116 38.6 115.4C38.6 114.9 38.5 114.4 38.3 113.9C38.1 113.5 37.9 113.1 37.6 112.7C37.3 112.4 36.9 112.1 36.5 111.9C36.1 111.7 35.6 111.6 35.1 111.6H33.5V119.1H33.4001Z" fill="#C5D100"></path>
<path d="M42.5 111H44V116.7C44 117.1 44.1 117.4 44.2 117.7C44.3 118 44.5 118.3 44.7 118.6C44.9 118.8 45.2 119 45.6 119.2C45.9 119.3 46.3 119.4 46.7 119.4C47.1 119.4 47.5 119.3 47.8 119.2C48.1 119.1 48.4 118.9 48.7 118.6C48.9 118.4 49.1 118.1 49.2 117.7C49.3 117.4 49.4 117 49.4 116.7V111H50V116.7C50 117.1 49.9 117.6 49.8 118C49.7 118.4 49.4 118.7 49.1 119C48.8 119.3 48.4 119.5 47.9 119.7C47.4 119.9 46.8 120 46.2 120C45.6 120 45.1 119.9 44.6 119.7C44.1 119.5 43.7 119.3 43.4 119C43.1 118.7 42.8 118.3 42.7 117.9C42.5 117.5 42.5 117.1 42.5 116.6V111V111Z" fill="#C5D100"></path>
<path d="M59.7 111V111.5H56.5V119.7H55.1V111.5H51.9V111H59.7Z" fill="#C5D100"></path>
<path d="M65.7 119.9C65.3 119.9 64.8001 119.8 64.4001 119.7C64.0001 119.6 63.6001 119.4 63.2001 119.2C62.8001 119 62.5001 118.8 62.2001 118.5C61.9001 118.2 61.7 117.9 61.5 117.6C61.3 117.3 61.1 116.9 61 116.5C60.9 116.1 60.8 115.7 60.8 115.3C60.8 114.9 60.9 114.5 61 114.1C61.1 113.7 61.3 113.4 61.5 113C61.7 112.7 62.0001 112.4 62.2001 112.1C62.5001 111.8 62.8001 111.6 63.2001 111.4C63.6001 111.2 63.9001 111.1 64.4001 110.9C64.8001 110.8 65.2 110.7 65.7 110.7C66.1 110.7 66.6 110.8 67 110.9C67.4 111 67.8 111.2 68.2 111.4C68.6 111.6 68.9 111.8 69.2 112.1C69.5 112.4 69.7001 112.7 69.9001 113C70.1001 113.3 70.3001 113.7 70.4001 114.1C70.5001 114.5 70.6 114.9 70.6 115.3C70.6 115.7 70.5001 116.1 70.4001 116.5C70.3001 116.9 70.1001 117.3 69.9001 117.6C69.7001 117.9 69.4 118.3 69.2 118.5C68.9 118.8 68.6 119 68.2 119.2C67.8 119.4 67.5 119.6 67 119.7C66.6 119.8 66.1 119.9 65.7 119.9ZM65.7 119.5C66.2 119.5 66.6 119.4 67 119.2C67.4 119 67.7 118.7 68 118.3C68.3 117.9 68.5 117.5 68.6 117C68.7 116.5 68.8001 115.9 68.8001 115.3C68.8001 114.7 68.7 114.2 68.6 113.7C68.5 113.2 68.3 112.8 68 112.4C67.7 112 67.4 111.8 67 111.6C66.6 111.4 66.2 111.3 65.7 111.3C65.2 111.3 64.7001 111.4 64.4001 111.6C64.0001 111.8 63.7001 112.1 63.4001 112.4C63.1001 112.8 62.9 113.2 62.8 113.7C62.7 114.2 62.6 114.7 62.6 115.3C62.6 115.9 62.7 116.5 62.8 117C62.9 117.5 63.1001 118 63.4001 118.3C63.7001 118.7 64.0001 119 64.4001 119.2C64.7001 119.4 65.2 119.5 65.7 119.5Z" fill="#C5D100"></path>
<path d="M75.4 119.3C75.6 119.3 75.8 119.3 76 119.2C76.2 119.1 76.4 119.1 76.6 118.9C76.8 118.8 76.9 118.6 77 118.5C77.1 118.3 77.2 118.1 77.2 117.9C77.2 117.6 77.1 117.4 77 117.2C76.9 117 76.7 116.8 76.5 116.6C76.3 116.4 76 116.3 75.7 116.1C75.4 115.9 75.1 115.8 74.8 115.6C74.5 115.4 74.2 115.3 73.9 115.1C73.6 114.9 73.4 114.7 73.1 114.5C72.9 114.3 72.7 114.1 72.6 113.8C72.5 113.5 72.4 113.2 72.4 112.9C72.4 112.6 72.5 112.3 72.6 112C72.7 111.7 72.9 111.5 73.1 111.3C73.3 111.1 73.6 110.9 74 110.8C74.4 110.7 74.8 110.6 75.2 110.6C76 110.6 76.7 110.8 77.2 111.1C77.7 111.4 78 111.9 78.2 112.6L77.4 112.9C77.3 112.6 77.2 112.4 77.1 112.2C77 112 76.8 111.8 76.6 111.6C76.4 111.4 76.2 111.3 75.9 111.2C75.7 111.1 75.4 111.1 75.1 111.1C74.8 111.1 74.6 111.1 74.4 111.2C74.2 111.3 74 111.4 73.9 111.5C73.8 111.6 73.7 111.8 73.6 111.9C73.5 112.1 73.5 112.2 73.5 112.4C73.5 112.6 73.6 112.8 73.7 113C73.8 113.2 74 113.4 74.3 113.5C74.5 113.7 74.8 113.8 75.1 114C75.4 114.2 75.7 114.3 76 114.5C76.3 114.7 76.6 114.8 76.9 115C77.2 115.2 77.5 115.4 77.7 115.6C77.9 115.8 78.1 116 78.3 116.3C78.4 116.5 78.5 116.8 78.5 117.1C78.5 117.4 78.4 117.8 78.3 118.1C78.2 118.4 78 118.7 77.7 118.9C77.4 119.1 77.1 119.3 76.7 119.4C76.3 119.5 75.9 119.6 75.3 119.6C74.9 119.6 74.5 119.6 74.2 119.5C73.9 119.4 73.6 119.3 73.3 119.1C73 118.9 72.8 118.7 72.7 118.5C72.5 118.2 72.4 118 72.3 117.6L73.1 117.3C73.2 117.6 73.3 117.8 73.5 118.1C73.7 118.3 73.8 118.5 74 118.7C74.2 118.9 74.4 119 74.7 119.1C74.8 119.3 75.1 119.3 75.4 119.3Z" fill="#C5D100"></path>
<path d="M85.1 111H85.9L91.6 117.3H91.7V111H92.3V119.9H92L85.8 112.8H85.7V119.7H85.1V111Z" fill="#C5D100"></path>
<path d="M98.6 110.8L102.7 119.7H101.2L99.9 116.8H96.2L94.8 119.7H94.1L98.3 110.8H98.6ZM96.5 116.2H99.7L98.1 112.7L96.5 116.2Z" fill="#C5D100"></path>
<path d="M110.6 111V111.5H107.4V119.7H105.9V111.5H102.8V111H110.6Z" fill="#C5D100"></path>
<path d="M112.4 111H113.9V116.7C113.9 117.1 114 117.4 114.1 117.7C114.2 118 114.4 118.3 114.6 118.6C114.8 118.8 115.1 119 115.5 119.2C115.8 119.3 116.2 119.4 116.6 119.4C117 119.4 117.4 119.3 117.7 119.2C118 119.1 118.3 118.9 118.6 118.6C118.8 118.4 119 118.1 119.1 117.7C119.2 117.4 119.3 117 119.3 116.7V111H119.9V116.7C119.9 117.1 119.8 117.6 119.7 118C119.6 118.4 119.3 118.7 119 119C118.7 119.3 118.3 119.5 117.8 119.7C117.3 119.9 116.7 120 116.1 120C115.5 120 115 119.9 114.5 119.7C114 119.5 113.6 119.3 113.3 119C113 118.7 112.7 118.3 112.6 117.9C112.4 117.5 112.4 117.1 112.4 116.6V111V111Z" fill="#C5D100"></path>
<path d="M122.6 111H125.6C126.1 111 126.6 111.1 127 111.2C127.4 111.3 127.7 111.5 128 111.7C128.3 111.9 128.5 112.1 128.6 112.4C128.7 112.7 128.8 113 128.8 113.3C128.8 113.6 128.7 113.8 128.6 114.1C128.5 114.3 128.4 114.5 128.2 114.7C128 114.9 127.8 115.1 127.5 115.2C127.2 115.3 126.9 115.4 126.6 115.5L129.8 119.7H128.1L125.1 115.6H124.1V119.7H122.6V111ZM124.1 115.2H124.9C125.2 115.2 125.5 115.2 125.8 115.1C126.1 115 126.3 114.9 126.5 114.7C126.7 114.5 126.9 114.3 127 114.1C127.1 113.9 127.2 113.6 127.2 113.3C127.2 113 127.2 112.8 127.1 112.6C127 112.4 126.9 112.2 126.7 112C126.5 111.8 126.3 111.7 126.1 111.6C125.9 111.5 125.6 111.5 125.4 111.5H124.1V115.2V115.2Z" fill="#C5D100"></path>
<path d="M135.1 110.8L139.2 119.7H137.7L136.4 116.8H132.7L131.3 119.7H130.6L134.8 110.8H135.1ZM132.9 116.2H136.1L134.5 112.7L132.9 116.2Z" fill="#C5D100"></path>
<path d="M142.4 111H140.9V119.7H142.4V111Z" fill="#C5D100"></path>
<path d="M147.6 119.3C147.8 119.3 148 119.3 148.2 119.2C148.4 119.1 148.6 119.1 148.8 118.9C149 118.8 149.1 118.6 149.2 118.5C149.3 118.3 149.3 118.1 149.3 117.9C149.3 117.6 149.2 117.4 149.1 117.2C149 117 148.8 116.8 148.6 116.6C148.4 116.4 148.1 116.3 147.8 116.1C147.5 115.9 147.2 115.8 146.9 115.6C146.6 115.4 146.3 115.3 146 115.1C145.7 114.9 145.5 114.7 145.2 114.5C145 114.3 144.8 114.1 144.7 113.8C144.6 113.5 144.5 113.2 144.5 112.9C144.5 112.6 144.6 112.3 144.7 112C144.8 111.7 145 111.5 145.3 111.3C145.5 111.1 145.8 110.9 146.2 110.8C146.6 110.7 147 110.6 147.4 110.6C148.2 110.6 148.9 110.8 149.4 111.1C149.9 111.4 150.2 111.9 150.4 112.6L149.6 112.9C149.5 112.6 149.4 112.4 149.3 112.2C149.2 112 149 111.8 148.8 111.6C148.6 111.4 148.4 111.3 148.1 111.2C147.9 111.1 147.6 111.1 147.3 111.1C147 111.1 146.8 111.1 146.6 111.2C146.4 111.3 146.2 111.4 146.1 111.5C146 111.6 145.9 111.8 145.8 111.9C145.7 112.1 145.7 112.2 145.7 112.4C145.7 112.6 145.8 112.8 145.9 113C146 113.2 146.2 113.4 146.5 113.5C146.7 113.7 147 113.8 147.3 114C147.6 114.2 147.9 114.3 148.2 114.5C148.5 114.7 148.8 114.8 149.1 115C149.4 115.2 149.7 115.4 149.9 115.6C150.1 115.8 150.3 116 150.5 116.3C150.6 116.5 150.7 116.8 150.7 117.1C150.7 117.4 150.6 117.8 150.5 118.1C150.4 118.4 150.2 118.7 149.9 118.9C149.6 119.1 149.3 119.3 148.9 119.4C148.5 119.5 148.1 119.6 147.5 119.6C147.1 119.6 146.7 119.6 146.4 119.5C146.1 119.4 145.8 119.3 145.5 119.1C145.2 118.9 145 118.7 144.9 118.5C144.7 118.2 144.6 118 144.5 117.6L145.3 117.3C145.4 117.6 145.5 117.8 145.7 118.1C145.9 118.3 146 118.5 146.2 118.7C146.4 118.9 146.6 119 146.9 119.1C147.1 119.3 147.3 119.3 147.6 119.3Z" fill="#C5D100"></path>
<path fill-rule="evenodd" clip-rule="evenodd" d="M42.6 26C44 26 45.1 27 45.1 28.3C45.1 29.6 44 30.6 42.6 30.6C41.2 30.6 40.1 29.5 40.1 28.3C40.2 27 41.3 26 42.6 26Z" fill="#115929"></path>
<path fill-rule="evenodd" clip-rule="evenodd" d="M71.5 53.8999C71.4 53.7999 71.3 53.6999 71.2 53.6999C71.1 53.6999 70.9 53.6999 70.7 53.6999C70.5 53.6999 70.3 53.6999 70.1 53.6999C69.3 53.6999 68.7001 53.4999 68.4001 53.0999C68.1001 52.6999 68 51.7999 68 50.3999V41.0999C68 38.1999 67.4 36.1999 66 35.0999C64.7 33.9999 62.4001 33.3999 59.2001 33.3999C56.9001 33.3999 54.9 33.9999 53.3 35.1999C51.6 36.3999 50.8 37.6999 50.8 39.0999C50.8 39.5999 51 40.0999 51.5 40.3999C52 40.7999 52.6 40.8999 53.3 40.8999C53.6 40.8999 53.9001 40.7999 54.2001 40.6999C54.4001 40.4999 54.5 40.2999 54.5 40.0999C54.5 39.9999 54.4 39.5999 54.3 39.0999C54.2 38.4999 54.1 38.0999 54.1 37.5999C54.1 36.5999 54.4 35.8999 55.1 35.3999C55.8 34.9999 56.9 34.6999 58.5 34.6999C60.4 34.6999 61.8 35.0999 62.8 35.8999C63.8 36.6999 64.3001 37.8999 64.3001 39.3999V42.8999C59.3001 43.7999 55.8 44.7999 53.8 45.9999C51.8 47.1999 50.9001 48.7999 50.9001 50.7999C50.9001 52.3999 51.3001 53.5999 52.2001 54.3999C53.1001 55.1999 54.4 55.5999 56.1 55.5999C57.8 55.5999 59.4 55.2999 60.8 54.8999C62.2 54.3999 63.5 53.5999 64.7 52.5999C65 53.4999 65.6 54.1999 66.2 54.5999C66.8 55.0999 67.6 55.2999 68.6 55.2999C69.5 55.2999 70.3001 55.1999 70.8001 54.8999C71.4001 54.6999 71.7 54.3999 71.7 53.9999C71.6 54.1999 71.6 53.9999 71.5 53.8999ZM64.3001 49.7999C64.3001 51.0999 63.7 52.1999 62.6 52.9999C61.4 53.7999 60 54.2999 58.3 54.2999C57 54.2999 56.1001 53.9999 55.4001 53.2999C54.7001 52.5999 54.4001 51.6999 54.4001 50.4999C54.4001 48.8999 55.1 47.6999 56.6 46.7999C58 45.8999 60.6001 45.0999 64.4001 44.2999V49.7999H64.3001Z" fill="#115929"></path>
<path fill-rule="evenodd" clip-rule="evenodd" d="M36.1 51.9999C34.2 53.3999 32.1001 54.3999 29.7001 54.9999C27.4001 55.6999 24.8 55.9999 22 55.9999C16.4 55.9999 11.9 54.3999 8.70005 51.1999C5.40005 47.9999 3.80005 43.6999 3.80005 38.0999C3.80005 35.2999 4.30005 32.7999 5.20005 30.3999C6.10005 27.9999 7.50005 25.9999 9.30005 24.0999C10.9 22.4999 12.8 21.2999 15 20.4999C17.1 19.6999 19.6 19.2999 22.3 19.2999C23.9 19.2999 25.4 19.4999 26.9 19.7999C28.4 20.0999 29.8 20.5999 31.3 21.1999C31.9 21.4999 32.6 21.8999 33.5 22.3999C34.3 22.8999 34.8 23.1999 35.1 23.1999C35.2 23.1999 35.5001 23.0999 35.7001 22.9999C36.0001 22.7999 36.2 22.7999 36.3 22.7999C36.4 22.7999 36.6 22.8999 36.6 23.0999C36.7 23.2999 36.8 23.4999 36.8 23.8999L37.3 29.0999C37.3 29.1999 37.3 29.3999 37.3 29.4999C37.3 29.5999 37.3 29.7999 37.3 30.0999C37.3 30.3999 37.2001 30.6999 37.2001 30.7999C37.1001 30.8999 37.0001 30.9999 36.7001 30.9999C36.3001 30.9999 35.8001 30.4999 35.4001 29.4999C35.1001 28.7999 34.8 28.1999 34.6 27.8999C33.1 25.6999 31.3001 23.8999 29.1 22.7999C27.0001 21.5999 24.7001 20.9999 22.2001 20.9999C18.0001 20.9999 14.6 22.3999 12 25.1999C9.40005 28.0999 8.10005 31.6999 8.10005 36.2999C8.10005 41.5999 9.50005 45.9999 12.2 49.3999C15 52.7999 18.4001 54.4999 22.7001 54.4999C24.6001 54.4999 26.5 54.0999 28.4 53.3999C30.3 52.6999 31.9001 51.6999 33.4001 50.3999C34.1001 49.7999 34.7001 48.9999 35.4001 47.9999C36.0001 46.9999 36.5 46.4999 36.8 46.4999C36.9 46.4999 37 46.5999 37.1 46.6999C37.2 46.8999 37.2001 46.9999 37.2001 47.1999C37.2001 47.1999 37.2 47.3999 37.1 47.4999C37.1 47.5999 37 47.7999 37 47.9999L36.1 51.9999Z" fill="#115929"></path>
<path fill-rule="evenodd" clip-rule="evenodd" d="M41.8 49.6999V40.5999C41.8 38.8999 41.6 37.7999 41.3 37.2999C41 36.7999 40.4 36.5999 39.5 36.5999C39 36.5999 38.6 36.5999 38.4 36.3999C38.2 36.2999 38 36.0999 38 35.8999C38 35.5999 38.4 35.2999 39.3 35.0999H39.4C39.8 35.0999 40.2 34.8999 40.6 34.7999C41 34.6999 41.4 34.4999 41.8 34.3999C42.3 34.1999 42.9 33.8999 43.7 33.4999C44.5 33.0999 45 32.8999 45.2 32.8999C45.4 32.8999 45.6 32.9999 45.7 33.0999C45.8 33.1999 45.8 33.3999 45.8 33.7999C45.8 33.8999 45.8 34.0999 45.8 34.5999C45.7 36.9999 45.7 39.4999 45.7 42.0999V49.7999C45.7 51.0999 45.8 51.9999 46.1 52.5999C46.4 53.0999 46.8 53.5999 47.5 53.8999C47.7 53.9999 47.9 54.0999 48.2 54.0999C48.5 54.1999 48.8 54.1999 49.1 54.1999C49.6 54.1999 50 54.2999 50.1 54.3999C50.3 54.4999 50.3 54.6999 50.3 54.8999C50.3 55.0999 50.2 55.1999 50 55.2999C49.8 55.3999 49.6 55.4999 49.4 55.4999C49.3 55.4999 48.6 55.4999 47.5 55.3999C46.3 55.2999 45.3 55.2999 44.3 55.2999C42.9 55.2999 41.5 55.3999 40.1 55.4999C39.9 55.4999 39.8 55.4999 39.7 55.4999C39.5 55.4999 39.4 55.4999 39.2 55.2999C39.1 55.0999 39 54.9999 39 54.8999C39 54.6999 39.1 54.5999 39.2 54.4999C39.3 54.3999 39.5 54.1999 39.8 54.0999C39.9 54.0999 40 53.9999 40.1 53.8999C40.5 53.5999 40.8 53.3999 40.9 53.1999C41.2 52.7999 41.5 52.3999 41.6 51.8999C41.7 51.4999 41.8 50.6999 41.8 49.6999Z" fill="#115929"></path>
<path fill-rule="evenodd" clip-rule="evenodd" d="M84.5 94.2999C84.4 94.1999 84.3 94.0999 84.2 94.0999C84.1 94.0999 83.9 94.0999 83.7 94.0999C83.5 94.0999 83.3 94.0999 83.1 94.0999C82.3 94.0999 81.7001 93.8999 81.4001 93.4999C81.1001 93.0999 81 92.1999 81 90.7999V81.4999C81 78.5999 80.4 76.5999 79 75.4999C77.7 74.3999 75.4 73.7999 72.2 73.7999C69.9 73.7999 67.9001 74.3999 66.3001 75.5999C64.6001 76.7999 63.8 78.0999 63.8 79.4999C63.8 79.9999 64 80.4999 64.5 80.7999C65 81.1999 65.6001 81.2999 66.3001 81.2999C66.6001 81.2999 66.9 81.1999 67.2 81.0999C67.4 80.8999 67.5 80.6999 67.5 80.4999C67.5 80.3999 67.4001 79.9999 67.3001 79.4999C67.2001 78.8999 67.1 78.4999 67.1 77.9999C67.1 76.9999 67.4 76.2999 68.1 75.7999C68.8 75.3999 69.9 75.0999 71.5 75.0999C73.4 75.0999 74.8001 75.4999 75.8001 76.2999C76.8001 77.0999 77.3001 78.2999 77.3001 79.7999V83.2999C72.3001 84.1999 68.8001 85.1999 66.8001 86.3999C64.8001 87.5999 63.9001 89.1999 63.9001 91.1999C63.9001 92.7999 64.3 93.9999 65.2 94.7999C66.1 95.5999 67.4 95.9999 69.1 95.9999C70.8 95.9999 72.4001 95.6999 73.8001 95.2999C75.2001 94.7999 76.5 93.9999 77.7 92.9999C78 93.8999 78.6 94.5999 79.2 94.9999C79.8 95.4999 80.6 95.6999 81.6 95.6999C82.5 95.6999 83.3001 95.5999 83.8001 95.2999C84.4001 95.0999 84.7 94.7999 84.7 94.3999C84.6 94.5999 84.6 94.3999 84.5 94.2999ZM77.3001 90.1999C77.3001 91.4999 76.7 92.5999 75.6 93.3999C74.4 94.1999 73.0001 94.6999 71.3001 94.6999C70.0001 94.6999 69.1001 94.3999 68.4001 93.6999C67.7001 92.9999 67.4001 92.0999 67.4001 90.8999C67.4001 89.2999 68.1 88.0999 69.6 87.1999C71 86.2999 73.6001 85.4999 77.4001 84.6999V90.1999H77.3001Z" fill="#115929"></path>
<path fill-rule="evenodd" clip-rule="evenodd" d="M39.9 92.8L38.7 87.1C38.7 87 38.6 86.9 38.6 86.7C38.6 86.6 38.6 86.4 38.6 86.2C38.6 85.9 38.7 85.7 38.8 85.6C38.9 85.4 39.1 85.4 39.3 85.4C39.7 85.4 40.1 85.9 40.5 86.9C40.8 87.8 41.2 88.6 41.5 89.2C42.3 90.8 43.6 92 45.2 92.9C46.9 93.8 48.7 94.3 50.8 94.3C53.5 94.3 55.7 93.6 57.3 92.2C58.9 90.8 59.7 88.9 59.7 86.6C59.7 84.7 59.1 83.2 57.9 82.1C56.7 81 54.3 80 50.8 79C46.6 77.8 43.8 76.5 42.2 75C40.6 73.5 39.8 71.4 39.8 68.8C39.8 66.1 40.9 63.9 43.1 62.1C45.3 60.4 48.1 59.5 51.6 59.5C53.6 59.5 55.6 59.9 57.8 60.7C58.4 60.9 58.8 61 58.9 61C59.1 61 59.4 60.9 59.8 60.7C60.1 60.5 60.3 60.4 60.4 60.4C60.5 60.4 60.6 60.5 60.6 60.6C60.7 60.7 60.7 60.9 60.7 61.1L61.5 67.3C61.5 67.4 61.5 67.5 61.5 67.6C61.5 67.7 61.5 67.8 61.5 68C61.5 68.3 61.4 68.4 61.3 68.5C61.2 68.6 61 68.7 60.8 68.7C60.4 68.7 60 68.3 59.8 67.5C59.5 66.7 59.2 66.1 58.9 65.6C57.8 63.9 56.6 62.7 55.3 62C54 61.3 52.4 60.9 50.5 60.9C48.2 60.9 46.3 61.5 44.8 62.7C43.3 63.9 42.6 65.4 42.6 67.2C42.6 68.8 43.1 70.1 44 71C45 71.9 47.1 72.9 50.5 73.9C53.3 74.7 55.3 75.4 56.4 75.9C57.6 76.4 58.5 76.9 59.1 77.5C60.3 78.5 61.1 79.6 61.7 80.9C62.3 82.2 62.5 83.7 62.5 85.3C62.5 88.6 61.3 91.1 59 93C56.6 94.9 53.4 95.8 49.4 95.8C46.9 95.8 44.7 95.5 42.9 94.8C41 94.6 40 93.8 39.9 92.8Z" fill="#115929"></path>
<path fill-rule="evenodd" clip-rule="evenodd" d="M100.9 92.6999V94.1999C100.9 94.7999 101 95.1999 101.1 95.3999C101.2 95.5999 101.5 95.6999 102 95.6999H102.5L106.8 95.3999C107.3 95.3999 107.6 95.2999 107.8 95.1999C108 95.0999 108 94.8999 108 94.6999C108 94.3999 107.7 94.1999 107 94.1999C106.6 94.1999 106.3 94.0999 106 94.0999C105.5 93.9999 105.1 93.7999 105 93.5999C104.8 93.2999 104.7 92.6999 104.7 91.7999V80.2999C104.7 79.5999 104.7 78.9999 104.7 78.2999C104.7 77.6999 104.8 76.9999 104.8 76.3999C104.8 76.1999 104.8 76.0999 104.9 75.8999V75.2999C104.9 74.9999 104.9 74.6999 104.8 74.5999C104.7 74.4999 104.6 74.3999 104.3 74.3999C104.2 74.3999 103.7 74.4999 102.7 74.6999C101.8 74.8999 100.9 74.9999 100 74.9999H99.3C98.8 74.9999 98.5 74.9999 98.3 75.1999C98.1 75.2999 98 75.4999 98 75.7999C98 76.1999 98.3 76.2999 98.9 76.3999C99.5 76.3999 99.8 76.4999 100 76.5999C100.3 76.7999 100.6 76.9999 100.7 77.2999C100.8 77.5999 100.9 78.1999 100.9 79.1999V89.0999C100.9 90.5999 100.3 91.8999 99.2 92.8999C98.1 93.8999 96.7 94.3999 95.1 94.3999C93.3 94.3999 92 93.7999 91.1 92.7999C90.2 91.6999 89.8 89.9999 89.8 87.6999V80.3999C89.8 79.4999 89.8 78.3999 89.9 77.0999C89.9 76.7999 89.9 76.6999 89.9 76.4999C89.9 76.2999 90 76.1999 90 75.9999V75.3999C90 75.0999 89.9 74.8999 89.9 74.6999C89.8 74.4999 89.6 74.4999 89.4 74.4999C89.4 74.4999 89.2 74.4999 89 74.4999C87.7 74.6999 86.4 74.8999 84.9 74.9999C84.8 74.9999 84.7 74.9999 84.6 74.9999C83.7 74.9999 83.3 75.1999 83.3 75.5999C83.3 75.8999 83.6 76.0999 84.2 76.1999C84.6 76.2999 84.9 76.3999 85.1 76.3999C85.4 76.5999 85.7 76.7999 85.9 77.0999C86 77.3999 86.1 77.9999 86.1 78.6999V87.7999C86.1 90.5999 86.7 92.6999 87.8 93.9999C89 95.2999 90.8 95.9999 93.2 95.9999C94.8 95.9999 96.2 95.6999 97.4 95.1999C98.8 94.6999 99.9 93.7999 100.9 92.6999Z" fill="#115929"></path>
<path fill-rule="evenodd" clip-rule="evenodd" d="M91.1 75.1L98.7 67.7C99.3 67.1 99.8 66.7 100.1 66.5C100.4 66.3 100.8 66.2 101.2 66.2C101.8 66.2 102.2 66.4 102.6 66.7C102.9 67 103.1 67.4 103.1 67.9C103.1 68.3 103 68.6 102.7 69C102.4 69.4 102 69.7 101.5 70L92.9 75H91.1V75.1Z" fill="#115929"></path>
<path fill-rule="evenodd" clip-rule="evenodd" d="M131.5 94C131.3 93.9 131.1 93.8 130.8 93.8H130.4C129.6 93.8 129 93.4999 128.7 93.0999C128.4 92.5999 128.2 91.5 128.2 89.8V69.0999V69V67.3C128.2 64.6 128.3 62.1 128.4 59.7C128.5 59.3 128.5 59.0999 128.5 59.0999C128.5 58.7999 128.4 58.6 128.3 58.4C128.2 58.3 128 58.2 127.8 58.2C127.6 58.2 127.1 58.3999 126.4 58.7999C125.7 59.1999 125 59.4999 124.4 59.7999C124 59.9999 123.5 60.1 123.1 60.2C122.6 60.3 122.2 60.4 121.8 60.5H121.7C120.9 60.7 120.5 60.9 120.5 61.2C120.5 61.4 120.6 61.6 120.8 61.7C121 61.8 121.3 61.9 121.7 61.9H122.2C123.1 61.9 123.6 62.2 124 62.7C124.3 63.2 124.5 64.3 124.5 65.9V68.5V68.5999V76C123.5 75.4 122.4 74.8999 121.4 74.5999C120.4 74.2999 119.3 74.0999 118.3 74.0999C115.3 74.0999 112.7 75.2999 110.5 77.5999C108.3 79.8999 107.2 82.7999 107.2 86.0999C107.2 89.0999 108.1 91.6 109.8 93.5C111.5 95.5 113.7 96.5 116.3 96.5C118 96.5 119.4 96.1999 120.8 95.5999C122.1 94.9999 123.4 94.1 124.5 92.8V95.5C124.5 95.8 124.6 95.9999 124.6 96.1999C124.7 96.3999 124.8 96.5 125.1 96.5C125.1 96.5 125.6 96.3999 126.6 96.0999C127.5 95.7999 128.5 95.7 129.4 95.5C129.6 95.5 129.8 95.4 130.2 95.4C131.4 95.3 132 94.9999 132 94.5999C131.8 94.1999 131.7 94.1 131.5 94ZM124.4 89.0999C124.4 90.5999 123.9 91.8 122.8 92.8C121.8 93.7 120.4 94.1999 118.7 94.1999C116.4 94.1999 114.4 93.1999 112.7 91.1999C111 89.1999 110.2 86.7999 110.2 84.0999C110.2 81.4999 110.8 79.4 112.1 77.8C113.4 76.2 115.1 75.4 117.1 75.4C118.1 75.4 119.2 75.6 120.2 75.9C121.2 76.3 122.1 76.8 122.9 77.4C123.4 77.8 123.8 78.3 124.1 78.8C124.3 79.3 124.4 79.8999 124.4 80.6999V89.0999V89.0999Z" fill="#115929"></path>
<path fill-rule="evenodd" clip-rule="evenodd" d="M150.6 91.1999C150.5 91.0999 150.5 91.0999 150.3 91.0999C150.2 91.0999 149.8 91.2999 149.3 91.5999C147.2 92.8999 145.2 93.5999 143.2 93.5999C140.5 93.5999 138.4 92.5999 136.9 90.6999C135.3 88.7999 134.5 86.1999 134.5 82.8999H148.5C149.4 82.8999 149.9 82.7999 150.1 82.6999C150.3 82.5999 150.4 82.2999 150.4 81.8999C150.4 81.1999 150.2 80.4999 149.9 79.6999C149.6 78.8999 149.1 78.1999 148.5 77.3999C147.5 76.1999 146.4 75.2999 145.2 74.7999C143.9 74.1999 142.5 73.8999 140.9 73.8999C138.2 73.8999 135.8 74.9999 133.8 77.3999C131.8 79.6999 130.8 82.3999 130.8 85.6999C130.8 88.6999 131.8 91.1999 133.8 93.2999C135.8 95.3999 138.2 96.3999 141.1 96.3999C142.7 96.3999 144.3 96.0999 145.7 95.5999C147.1 95.0999 148.4 94.2999 149.7 93.1999C150.1 92.7999 150.4 92.4999 150.6 92.2999C150.8 91.9999 150.9 91.7999 150.9 91.5999C150.6 91.2999 150.6 91.1999 150.6 91.1999ZM136.3 76.8999C137.3 75.7999 138.5 75.1999 140 75.1999C141.6 75.1999 143 75.7999 144.1 76.7999C145.3 77.8999 145.9 79.0999 145.9 80.4999C145.9 80.8999 145.7 81.1999 145.2 81.3999C144.7 81.4999 143.6 81.5999 141.9 81.5999H134.6C134.8 79.5999 135.4 78.0999 136.3 76.8999Z" fill="#115929"></path>
<path fill-rule="evenodd" clip-rule="evenodd" d="M90.5 69.8C90.4 69.8 90.4 69.6999 90.3 69.6999C90.2 69.6999 90.2 69.6999 90 69.6999C89.9 69.6999 89.8 69.6999 89.7 69.6999C89.3 69.6999 89 69.6 88.9 69.4C88.8 69.2 88.7 68.7999 88.7 68.0999V63.5C88.7 62.1 88.4 61.1 87.7 60.5C87 59.9 85.9 59.7 84.4 59.7C83.3 59.7 82.3 59.9999 81.5 60.5999C80.7 61.1999 80.3 61.8 80.3 62.5C80.3 62.8 80.4 63 80.7 63.2C80.9 63.4 81.2 63.5 81.6 63.5C81.8 63.5 81.9 63.5 82 63.4C82.1 63.3 82.2 63.1999 82.2 63.0999C82.2 62.9999 82.2 62.8999 82.1 62.5999C82 62.2999 82 61.9999 82 61.7999C82 61.2999 82.2 60.9 82.5 60.7C82.8 60.5 83.4 60.4 84.2 60.4C85.1 60.4 85.8 60.6 86.3 61C86.8 61.4 87 62 87 62.7V64.4C84.5 64.8 82.8 65.3 81.8 65.9C80.8 66.5 80.3 67.3 80.3 68.3C80.3 69.1 80.5 69.6999 81 70.0999C81.4 70.4999 82.1 70.6999 82.9 70.6999C83.8 70.6999 84.5 70.6 85.2 70.3C85.9 70.1 86.5 69.6999 87.1 69.0999C87.3 69.4999 87.5 69.8999 87.8 70.0999C88.1 70.2999 88.5 70.4 89 70.4C89.5 70.4 89.8 70.2999 90.1 70.1999C90.4 70.0999 90.5 70 90.5 69.8C90.6 69.9 90.6 69.9 90.5 69.8ZM87 67.6999C87 68.2999 86.7 68.9 86.1 69.3C85.6 69.8 84.9 70 84 70C83.4 70 82.9 69.8 82.6 69.5C82.3 69.2 82.1 68.6999 82.1 68.0999C82.1 67.2999 82.5 66.7 83.2 66.3C83.9 65.9 85.2 65.3999 87.1 65.0999V67.6999H87Z" fill="#115929"></path>
<path fill-rule="evenodd" clip-rule="evenodd" d="M79.9 69.5999C79.8 69.5999 79.7 69.4999 79.5 69.4999H79.3C78.9 69.4999 78.6 69.3999 78.5 69.0999C78.3 68.8999 78.3 68.2999 78.3 67.4999V56.3999C78.3 55.0999 78.3 53.7999 78.4 52.5999C78.4 52.3999 78.4 52.2999 78.4 52.2999C78.4 52.1999 78.4 52.0999 78.3 51.9999C78.2 51.8999 78.2 51.8999 78.1 51.8999C78 51.8999 77.8 51.9999 77.4 52.1999C77 52.3999 76.7 52.5999 76.4 52.6999C76.2 52.7999 76 52.7999 75.8 52.8999C75.6 52.9999 75.4 52.9999 75.2 52.9999H75.1C74.7 53.0999 74.5 53.1999 74.5 53.2999C74.5 53.3999 74.6 53.4999 74.7 53.5999C74.8 53.6999 74.9 53.6999 75.1 53.6999H75.4C75.8 53.6999 76.1 53.7999 76.3 54.0999C76.5 54.3999 76.5 54.8999 76.5 55.6999V60.6999C76 60.3999 75.5 60.1999 75 59.9999C74.5 59.7999 74 59.7999 73.5 59.7999C72 59.7999 70.7 60.3999 69.7 61.4999C68.6 62.6999 68.1 64.0999 68.1 65.6999C68.1 67.1999 68.5 68.3999 69.4 69.3999C70.2 70.3999 71.3 70.8999 72.6 70.8999C73.4 70.8999 74.1 70.7999 74.8 70.4999C75.5 70.1999 76.1 69.6999 76.6 69.0999V70.3999C76.6 70.4999 76.6 70.5999 76.7 70.6999C76.8 70.7999 76.8 70.7999 76.9 70.7999C76.9 70.7999 77.2 70.6999 77.6 70.5999C78.1 70.4999 78.5 70.3999 79 70.2999C79.1 70.2999 79.2 70.2999 79.4 70.1999C80 70.0999 80.3 69.9999 80.3 69.7999C80 69.6999 80 69.5999 79.9 69.5999ZM76.4 67.0999C76.4 67.8999 76.2 68.4999 75.6 68.8999C75.1 69.2999 74.4 69.5999 73.6 69.5999C72.5 69.5999 71.5 69.0999 70.7 68.0999C69.9 67.0999 69.4 65.8999 69.4 64.5999C69.4 63.2999 69.7 62.2999 70.4 61.4999C71 60.6999 71.9 60.2999 72.9 60.2999C73.4 60.2999 73.9 60.3999 74.4 60.5999C74.9 60.7999 75.3 60.9999 75.7 61.2999C76 61.4999 76.1 61.6999 76.3 61.9999C76.4 62.1999 76.5 62.4999 76.5 62.8999V67.0999H76.4Z" fill="#115929"></path>
<path fill-rule="evenodd" clip-rule="evenodd" d="M72.2 42.4C70.1 39.5 67.9 35.2 67.4 32.5C61.8 21.9 53.1 11.2 54.4 1.19995C54.4 5.69995 59.2 14.6 64.3 22.6C62.3 14.4 63.7 6.89995 67.7 0.199951C65.4 8.29995 65.2 16.4 66.5 21.5C67.4 17.4 69 14.3 70.9 11.9C70 14.9 69.5 18.5999 69.3 22.7999C70.8 20.7999 73 18.8999 76.2 17.2999C81.7 14.4999 87.1 11.6 92.6 8.79995C89.5 11 88.4 15.6 90.4 23.5C97.7 14.1 116.7 9.89995 128.3 7.39995C117.9 16.4 125.2 25.2 122.3 39.9C127 41.9 132.1 44.3999 137.7 47.0999C123 42.5999 122.8 59.4 100.8 57.9C112.4 66.2 128.8 68.9 139.9 69.7C123.6 69.5 112.8 67.1 99.1 59.5C106.5 66 115 72.4 119.9 73.5C105.6 71.6 94.4 55.9 80.8 49C114.5 63.4 118.9 47.9 127.7 44.5C111.2 35.5 94.3 35 90 42.2C97.7 42 107.1 42.2999 114.2 46.5999C103 41.0999 86.4 46.6999 73.4 42.7999C92.8 37.9999 90.4 27.8 87 13.8C70.7 21.5 69.1 29.7999 72.2 37.7999C76.6 28.9 78.6 24.6 83.8 21.9C79.1 25.1 77.3 33.6 72.2 42.4ZM92.1 35.0999C98.8 31.8999 107.1 33.4999 117.9 37.7999C121 31.1999 120.3 22.6 119.5 12.5C100.1 18.5 93.1 26.3999 92.1 35.0999Z" fill="#C5D100"></path>
</g>
<defs>
<clipPath id="clip0_143_49">
<rect width="151" height="120" fill="white"></rect>
</clipPath>
</defs>
</svg>